<svg xmlns="http://www.w3.org/2000/svg" xmlns:xlink="http://www.w3.org/1999/xlink" width="2000" zoomAndPan="magnify" viewBox="0 0 1500 449.999984" height="600" preserveAspectRatio="xMidYMid meet" version="1.0"><defs><g/><clipPath id="d48116aeab"><path d="M 543.394531 153 L 673.894531 153 L 673.894531 296.667969 L 543.394531 296.667969 Z M 543.394531 153 " clip-rule="nonzero"/></clipPath><clipPath id="f6641199eb"><rect x="0" width="392" y="0" height="290"/></clipPath></defs><path fill="#0f1f3d" d="M 665.039062 209.6875 C 664.363281 209.140625 663.554688 208.855469 662.746094 208.566406 C 658.71875 207.109375 654.453125 206.808594 650.222656 206.367188 C 645.453125 205.863281 640.667969 205.546875 635.882812 205.320312 C 626.265625 204.855469 616.640625 204.742188 607.019531 204.921875 C 598.742188 205.078125 590.480469 205.550781 582.210938 205.855469 C 580.019531 205.9375 577.832031 206.046875 575.644531 206.195312 C 571.769531 206.472656 567.714844 206.734375 563.992188 207.933594 C 562.710938 208.34375 560.648438 209.398438 561.433594 210.828125 C 561.328125 210.902344 561.269531 211.039062 561.289062 211.253906 C 561.394531 212.367188 561.496094 213.484375 561.597656 214.597656 C 561.859375 217.503906 562.128906 220.414062 562.390625 223.320312 C 562.757812 227.386719 563.132812 231.453125 563.5 235.515625 C 563.914062 240.042969 564.328125 244.574219 564.742188 249.101562 C 565.136719 253.453125 565.535156 257.804688 565.929688 262.15625 C 566.25 265.679688 566.574219 269.199219 566.894531 272.71875 C 567.078125 274.761719 567.265625 276.796875 567.453125 278.839844 C 567.488281 279.242188 567.5 279.664062 567.605469 280.058594 C 568.113281 281.917969 569.824219 283.246094 571.402344 284.1875 C 573.339844 285.34375 575.496094 286.121094 577.640625 286.777344 C 580.085938 287.527344 582.570312 288.113281 585.078125 288.617188 C 589.363281 289.472656 593.703125 290.105469 598.054688 290.527344 C 606.90625 291.386719 615.8125 291.238281 624.671875 290.484375 C 629.113281 290.105469 633.542969 289.585938 637.964844 288.996094 C 642.28125 288.421875 646.578125 287.695312 650.894531 287.167969 C 652.777344 286.9375 654.667969 286.714844 656.519531 286.289062 C 657.433594 286.078125 658.339844 285.808594 659.210938 285.441406 C 659.511719 285.3125 659.898438 285.21875 660.003906 284.882812 C 660.101562 284.574219 660.066406 284.152344 660.09375 283.832031 C 660.261719 281.75 660.429688 279.667969 660.597656 277.585938 C 660.875 274.125 661.15625 270.664062 661.4375 267.207031 C 661.78125 262.90625 662.132812 258.609375 662.480469 254.308594 C 662.847656 249.773438 663.214844 245.242188 663.582031 240.707031 C 663.925781 236.476562 664.269531 232.253906 664.609375 228.023438 C 664.882812 224.660156 665.15625 221.300781 665.429688 217.9375 C 665.585938 216.003906 665.742188 214.066406 665.898438 212.132812 C 665.914062 211.9375 665.929688 211.75 665.945312 211.558594 C 665.972656 211.488281 666 211.410156 666.011719 211.328125 C 666.089844 210.667969 665.515625 210.066406 665.039062 209.6875 Z M 566.152344 209.53125 C 567.800781 209.027344 569.539062 208.773438 571.242188 208.542969 C 573.242188 208.273438 575.257812 208.097656 577.277344 207.953125 C 580.882812 207.703125 584.496094 207.601562 588.113281 207.480469 C 592.183594 207.34375 596.253906 207.054688 600.324219 206.910156 C 609.550781 206.582031 618.789062 206.5 628.019531 206.738281 C 637.105469 206.976562 646.152344 207.554688 655.1875 208.519531 C 657.222656 208.738281 659.265625 208.984375 661.246094 209.519531 C 662.007812 209.726562 662.875 210.019531 663.554688 210.277344 C 663.5625 210.28125 663.574219 210.289062 663.59375 210.296875 C 663.558594 210.363281 663.511719 210.421875 663.460938 210.476562 C 663.441406 210.5 663.390625 210.546875 663.34375 210.574219 C 663.253906 210.632812 663.171875 210.6875 663.085938 210.738281 C 662.609375 211.015625 662.074219 211.203125 661.546875 211.371094 C 659.960938 211.875 657.996094 212.21875 656.234375 212.492188 C 653.519531 212.917969 650.785156 213.21875 648.050781 213.476562 C 640.605469 214.167969 633.121094 214.507812 625.644531 214.699219 C 616.765625 214.925781 607.875 214.917969 598.996094 214.667969 C 591.632812 214.460938 584.261719 214.113281 576.929688 213.398438 C 574.273438 213.136719 571.617188 212.832031 568.984375 212.394531 C 567.246094 212.105469 565.785156 211.839844 564.046875 211.257812 C 564.011719 211.242188 563.984375 211.234375 563.964844 211.230469 C 563.949219 211.222656 563.929688 211.214844 563.902344 211.203125 C 563.804688 211.164062 563.714844 211.125 563.621094 211.085938 C 563.628906 211.050781 563.640625 211.019531 563.644531 211.007812 C 563.980469 210.148438 565.375 209.769531 566.152344 209.53125 Z M 563.59375 211.210938 C 563.589844 211.214844 563.589844 211.210938 563.589844 211.21875 C 563.574219 211.277344 563.578125 211.253906 563.589844 211.203125 C 563.589844 211.207031 563.59375 211.210938 563.59375 211.210938 Z M 563.472656 211.019531 C 563.464844 211.015625 563.460938 211.011719 563.453125 211.011719 C 563.4375 210.988281 563.441406 210.980469 563.472656 211.019531 Z M 563.382812 210.976562 C 563.382812 210.972656 563.378906 210.972656 563.382812 210.976562 C 563.28125 210.917969 563.28125 210.90625 563.382812 210.976562 Z M 661.6875 234.945312 C 661.117188 242.03125 660.539062 249.117188 659.96875 256.203125 C 659.472656 262.328125 658.976562 268.449219 658.480469 274.570312 C 658.320312 276.582031 658.15625 278.589844 657.992188 280.601562 C 657.9375 281.230469 657.890625 281.859375 657.835938 282.492188 C 657.8125 282.769531 657.726562 283.125 657.753906 283.410156 C 655.734375 284.332031 653.539062 284.703125 651.355469 284.988281 C 648.972656 285.300781 646.589844 285.621094 644.210938 285.96875 C 638.957031 286.742188 633.695312 287.472656 628.414062 288.035156 C 617.863281 289.167969 607.1875 289.648438 596.609375 288.570312 C 591.382812 288.039062 586.144531 287.234375 581.03125 286.027344 C 578.289062 285.386719 575.5625 284.636719 573 283.457031 C 572.640625 283.292969 572.757812 283.351562 572.425781 283.179688 C 572.160156 283.039062 571.890625 282.890625 571.632812 282.738281 C 571.507812 282.664062 571.386719 282.585938 571.261719 282.511719 C 571.238281 282.496094 571.222656 282.484375 571.210938 282.480469 C 571.195312 282.46875 571.1875 282.464844 571.167969 282.453125 C 570.960938 282.300781 570.761719 282.140625 570.5625 281.984375 C 570.542969 281.964844 570.519531 281.949219 570.507812 281.929688 C 570.421875 281.839844 570.339844 281.757812 570.257812 281.675781 C 570.246094 281.664062 570.246094 281.664062 570.238281 281.65625 C 570.230469 281.648438 570.230469 281.644531 570.222656 281.632812 C 570.167969 281.554688 570.109375 281.480469 570.058594 281.402344 C 570.097656 281.445312 569.914062 281.128906 569.875 281.039062 C 569.863281 281.011719 569.859375 281.003906 569.855469 281.003906 C 569.851562 280.988281 569.847656 280.964844 569.835938 280.921875 C 569.8125 280.828125 569.789062 280.734375 569.777344 280.636719 C 569.523438 279.027344 569.472656 277.363281 569.324219 275.742188 C 568.960938 271.785156 568.601562 267.832031 568.242188 263.882812 C 567.769531 258.675781 567.292969 253.472656 566.820312 248.269531 C 566.332031 242.933594 565.84375 237.597656 565.359375 232.257812 C 564.960938 227.90625 564.5625 223.554688 564.167969 219.203125 C 563.964844 216.96875 563.761719 214.742188 563.558594 212.507812 C 564.25 212.820312 564.992188 213.042969 565.691406 213.234375 C 567.753906 213.800781 569.878906 214.140625 571.984375 214.445312 C 578.695312 215.398438 585.496094 215.824219 592.261719 216.140625 C 601.351562 216.566406 610.457031 216.691406 619.554688 216.601562 C 627.960938 216.519531 636.371094 216.253906 644.757812 215.648438 C 650.304688 215.246094 655.957031 214.828125 661.398438 213.601562 C 662.054688 213.453125 662.765625 213.304688 663.457031 213.09375 C 663.339844 214.535156 663.222656 215.976562 663.105469 217.414062 C 662.632812 223.257812 662.160156 229.105469 661.6875 234.945312 Z M 661.6875 234.945312 " fill-opacity="1" fill-rule="nonzero"/><path fill="#0f1f3d" d="M 646.066406 257.40625 C 644.867188 256.949219 643.53125 256.527344 642.230469 256.742188 C 641.296875 256.894531 640.417969 257.355469 639.769531 258.039062 C 638.410156 259.472656 638.222656 261.6875 639.285156 263.339844 C 639.851562 264.222656 640.699219 264.800781 641.648438 265.214844 C 642.871094 265.75 644.292969 266.253906 645.65625 266.160156 C 647.917969 266.003906 649.675781 264.113281 649.707031 261.859375 C 649.691406 260.886719 649.378906 259.964844 648.785156 259.191406 C 648.097656 258.304688 647.101562 257.792969 646.066406 257.40625 Z M 645.101562 257.382812 C 644.90625 257.3125 644.960938 257.320312 645.101562 257.382812 Z M 642.394531 265.21875 C 642.328125 265.203125 642.296875 265.191406 642.394531 265.21875 Z M 644.828125 264.816406 C 644.191406 265.144531 643.507812 265.257812 642.808594 265.242188 C 642.480469 264.996094 642.1875 264.707031 641.945312 264.378906 C 640.976562 263.085938 640.867188 261.28125 641.617188 259.859375 C 642.359375 258.457031 643.859375 257.550781 645.449219 257.597656 C 645.757812 257.824219 646.042969 258.089844 646.277344 258.390625 C 646.867188 259.132812 647.15625 260.054688 647.167969 260.996094 C 647.148438 262.597656 646.269531 264.082031 644.828125 264.816406 Z M 644.828125 264.816406 " fill-opacity="1" fill-rule="nonzero"/><path fill="#0f1f3d" d="M 635.226562 268.921875 C 633.964844 268.441406 632.332031 267.894531 631.25 269.035156 C 630.554688 269.765625 630.488281 270.871094 631.023438 271.710938 C 631.351562 272.222656 631.871094 272.523438 632.417969 272.761719 C 633.070312 273.046875 633.765625 273.289062 634.464844 273.441406 C 634.78125 273.511719 635.105469 273.558594 635.429688 273.539062 C 636.570312 273.457031 637.46875 272.515625 637.480469 271.375 C 637.472656 270.878906 637.308594 270.410156 637.003906 270.015625 C 636.574219 269.453125 635.875 269.164062 635.226562 268.921875 Z M 633.578125 272.507812 C 633.5625 272.511719 633.550781 272.515625 633.535156 272.519531 C 633.53125 272.511719 633.523438 272.503906 633.519531 272.5 C 632.835938 271.351562 633.34375 269.867188 634.582031 269.371094 C 634.59375 269.367188 634.605469 269.363281 634.621094 269.359375 C 634.628906 269.371094 634.636719 269.378906 634.640625 269.390625 C 634.847656 269.734375 634.953125 270.109375 634.957031 270.507812 C 634.941406 271.398438 634.402344 272.179688 633.578125 272.507812 Z M 633.578125 272.507812 " fill-opacity="1" fill-rule="nonzero"/><g clip-path="url(#d48116aeab)"><path fill="#0f1f3d" d="M 673.683594 184.789062 C 673.6875 184.671875 673.6875 184.558594 673.667969 184.457031 C 673.660156 184.40625 673.675781 184.34375 673.679688 184.289062 C 673.683594 184.257812 673.640625 184.246094 673.585938 184.238281 C 673.332031 183.339844 672.632812 182.566406 671.867188 182.007812 C 670.289062 180.851562 668.335938 180.191406 666.484375 179.640625 C 663.621094 178.785156 660.691406 178.175781 657.746094 177.671875 C 649.351562 176.238281 640.824219 175.558594 632.332031 175.125 C 621.734375 174.589844 611.109375 174.507812 600.5 174.863281 C 598.519531 174.933594 596.539062 175.019531 594.5625 175.121094 C 594.144531 173.339844 593.558594 171.601562 592.800781 169.933594 C 589.398438 162.566406 582.871094 156.964844 575.078125 154.71875 C 568.019531 152.679688 559.925781 153.03125 553.230469 156.128906 C 549.472656 157.867188 546.152344 160.457031 543.496094 163.632812 C 543.511719 163.648438 543.527344 163.664062 543.542969 163.675781 C 544.960938 164.855469 546.378906 166.03125 547.796875 167.207031 C 551.203125 170.03125 554.609375 172.859375 558.015625 175.683594 C 559.402344 176.832031 560.78125 177.984375 562.167969 179.132812 C 560.539062 179.546875 558.917969 180.035156 557.386719 180.710938 C 556.15625 181.253906 554.679688 181.964844 553.960938 183.167969 C 553.289062 184.304688 553.542969 185.425781 554.21875 186.351562 C 554.222656 186.40625 554.226562 186.460938 554.230469 186.515625 C 554.414062 188.9375 554.597656 191.359375 554.785156 193.78125 C 555.054688 197.347656 555.324219 200.914062 555.601562 204.476562 C 555.933594 208.824219 556.261719 213.175781 556.59375 217.523438 C 556.957031 222.289062 557.320312 227.050781 557.683594 231.816406 C 558.050781 236.648438 558.421875 241.480469 558.785156 246.304688 C 559.128906 250.792969 559.472656 255.273438 559.8125 259.757812 C 560.101562 263.546875 560.386719 267.339844 560.675781 271.128906 C 560.882812 273.855469 561.089844 276.582031 561.300781 279.3125 C 561.398438 280.609375 561.492188 281.910156 561.601562 283.203125 C 561.605469 283.242188 561.605469 283.277344 561.605469 283.3125 C 561.289062 283.476562 561.066406 283.769531 561.078125 284.21875 C 561.109375 285.695312 563.015625 286.738281 564.113281 287.351562 C 566.332031 288.59375 568.777344 289.46875 571.183594 290.269531 C 579.136719 292.914062 587.484375 294.429688 595.792969 295.40625 C 606.488281 296.660156 617.285156 296.769531 628.007812 295.785156 C 636.71875 294.992188 645.445312 293.535156 653.835938 291.03125 C 656.589844 290.210938 659.347656 289.296875 661.941406 288.0625 C 663.28125 287.421875 665.101562 286.617188 665.878906 285.261719 C 666.066406 284.9375 666.136719 284.652344 666.144531 284.28125 C 666.148438 284.128906 666.113281 283.988281 666.058594 283.863281 C 666.066406 283.839844 666.078125 283.816406 666.082031 283.796875 C 666.152344 282.910156 666.21875 282.027344 666.285156 281.140625 C 666.472656 278.71875 666.65625 276.296875 666.839844 273.875 C 667.113281 270.308594 667.382812 266.742188 667.65625 263.179688 C 667.988281 258.832031 668.320312 254.480469 668.652344 250.132812 C 669.011719 245.367188 669.378906 240.605469 669.742188 235.839844 C 670.109375 231.007812 670.476562 226.179688 670.84375 221.351562 C 671.1875 216.863281 671.527344 212.382812 671.867188 207.898438 C 672.15625 204.109375 672.445312 200.316406 672.734375 196.53125 C 672.941406 193.804688 673.148438 191.078125 673.359375 188.347656 C 673.421875 187.492188 673.492188 186.632812 673.554688 185.777344 C 673.558594 185.738281 673.5625 185.699219 673.570312 185.660156 C 673.671875 185.367188 673.703125 185.074219 673.683594 184.789062 Z M 671.113281 184.425781 C 671.113281 184.433594 671.113281 184.433594 671.117188 184.441406 C 671.105469 184.425781 671.078125 184.390625 671.046875 184.34375 C 671.054688 184.351562 671.058594 184.359375 671.066406 184.363281 C 671.097656 184.394531 671.105469 184.410156 671.113281 184.425781 Z M 624.382812 177.21875 C 633.300781 177.457031 642.230469 177.992188 651.085938 179.101562 C 654.476562 179.527344 657.867188 180.035156 661.214844 180.730469 C 662.539062 181.007812 663.863281 181.316406 665.167969 181.671875 C 665.304688 181.710938 665.445312 181.75 665.578125 181.789062 C 665.578125 181.789062 665.578125 181.789062 665.582031 181.789062 C 665.644531 181.808594 665.707031 181.828125 665.765625 181.84375 C 666.058594 181.929688 666.34375 182.019531 666.632812 182.113281 C 667.125 182.277344 667.613281 182.445312 668.09375 182.632812 C 668.515625 182.800781 668.933594 182.972656 669.339844 183.167969 C 669.511719 183.25 669.675781 183.335938 669.847656 183.425781 C 669.859375 183.429688 669.863281 183.429688 669.875 183.4375 C 669.953125 183.488281 670.035156 183.535156 670.113281 183.582031 C 670.371094 183.746094 670.597656 183.945312 670.847656 184.117188 C 670.878906 184.148438 670.90625 184.175781 670.9375 184.210938 C 670.972656 184.25 671.003906 184.289062 671.039062 184.328125 C 671.066406 184.386719 671.105469 184.464844 671.136719 184.515625 C 671.136719 184.503906 671.136719 184.496094 671.132812 184.484375 C 671.136719 184.496094 671.140625 184.507812 671.144531 184.519531 C 671.144531 184.523438 671.144531 184.523438 671.144531 184.527344 C 671.144531 184.527344 671.148438 184.53125 671.148438 184.53125 C 671.15625 184.558594 671.160156 184.585938 671.160156 184.605469 C 671.160156 184.613281 671.160156 184.609375 671.160156 184.613281 C 671.15625 184.617188 671.15625 184.625 671.152344 184.628906 C 671.148438 184.621094 671.148438 184.605469 671.144531 184.589844 C 671.144531 184.597656 671.144531 184.605469 671.144531 184.613281 C 671.144531 184.628906 671.144531 184.632812 671.144531 184.644531 C 671.140625 184.65625 671.136719 184.660156 671.128906 184.671875 C 671.113281 184.695312 671.101562 184.738281 671.089844 184.777344 C 671.035156 184.859375 670.984375 184.941406 670.921875 185.019531 C 670.867188 185.09375 670.773438 185.183594 670.746094 185.210938 C 670.671875 185.28125 670.59375 185.351562 670.511719 185.417969 C 670.25 185.625 669.964844 185.808594 669.675781 185.976562 C 669.589844 186.027344 669.503906 186.074219 669.414062 186.125 C 669.40625 186.128906 669.40625 186.128906 669.402344 186.132812 C 669.390625 186.136719 669.382812 186.140625 669.367188 186.148438 C 669.179688 186.238281 668.992188 186.332031 668.800781 186.417969 C 667.882812 186.832031 666.933594 187.164062 665.972656 187.464844 C 663.332031 188.289062 660.695312 188.835938 657.996094 189.308594 C 650.078125 190.703125 642.035156 191.394531 634.019531 191.847656 C 623.859375 192.425781 613.667969 192.546875 603.496094 192.289062 C 600.082031 192.203125 596.675781 192.070312 593.261719 191.886719 C 595.082031 187.378906 595.722656 182.429688 595.03125 177.554688 C 604.800781 177.046875 614.601562 176.949219 624.382812 177.21875 Z M 548.765625 165.894531 C 548.148438 165.382812 547.535156 164.871094 546.917969 164.359375 C 546.8125 164.273438 546.15625 163.867188 546.144531 163.722656 C 546.136719 163.644531 546.84375 162.980469 546.933594 162.878906 C 547.402344 162.359375 547.890625 161.855469 548.402344 161.371094 C 549.425781 160.394531 550.519531 159.5 551.683594 158.695312 C 553.882812 157.167969 556.308594 155.96875 558.855469 155.136719 C 561.332031 154.324219 563.945312 153.84375 566.554688 153.824219 C 568.96875 153.804688 571.394531 154.300781 573.679688 155.054688 C 579.363281 156.933594 584.371094 160.707031 587.765625 165.636719 C 588.675781 166.960938 589.460938 168.359375 590.132812 169.816406 C 591.050781 171.84375 591.703125 173.960938 592.113281 176.121094 C 592.097656 176.246094 592.097656 176.378906 592.128906 176.507812 C 592.152344 176.609375 592.195312 176.703125 592.238281 176.792969 C 593.0625 181.789062 592.546875 186.984375 590.644531 191.722656 C 589.855469 191.675781 589.066406 191.617188 588.277344 191.5625 C 588.863281 189.300781 589.273438 187 589.519531 184.679688 C 589.914062 180.898438 589.984375 176.988281 589.214844 173.25 C 588.496094 169.742188 587.019531 166.339844 584.625 163.648438 C 582.507812 161.277344 579.726562 159.542969 576.753906 158.453125 C 573.324219 157.195312 569.648438 156.707031 566.003906 156.730469 C 565.460938 156.734375 564.601562 156.910156 564.285156 157.410156 C 563.972656 157.90625 564.542969 158.105469 564.960938 158.101562 C 571.046875 158.0625 577.476562 159.652344 581.804688 164.183594 C 586.855469 169.472656 587.625 177.222656 587.015625 184.175781 C 586.804688 186.601562 586.410156 189.007812 585.824219 191.371094 C 583.421875 191.175781 581.027344 190.941406 578.632812 190.667969 C 577.042969 189.351562 575.453125 188.03125 573.863281 186.710938 C 577.332031 186.082031 580.804688 185.453125 584.277344 184.820312 C 584.835938 184.71875 585.390625 184.617188 585.945312 184.519531 C 587.410156 184.257812 586.402344 181.78125 585.054688 182.027344 C 581.203125 182.722656 577.359375 183.425781 573.511719 184.121094 C 572.953125 184.222656 572.398438 184.324219 571.84375 184.421875 C 571.640625 184.460938 571.488281 184.539062 571.375 184.648438 C 571.027344 184.359375 570.675781 184.066406 570.328125 183.777344 C 570.523438 183.695312 570.710938 183.589844 570.851562 183.46875 C 574.695312 180.230469 578.539062 176.988281 582.378906 173.75 C 582.925781 173.285156 583.476562 172.828125 584.023438 172.363281 C 584.4375 172.011719 584.308594 171.613281 583.800781 171.496094 C 583.21875 171.363281 582.417969 171.589844 581.964844 171.96875 C 578.125 175.207031 574.28125 178.449219 570.4375 181.6875 C 570.003906 182.054688 569.566406 182.421875 569.136719 182.789062 C 568.960938 182.644531 568.789062 182.496094 568.613281 182.355469 C 570.023438 176.769531 571.441406 171.183594 572.851562 165.605469 C 573.054688 164.804688 573.253906 164.007812 573.457031 163.207031 C 573.6875 162.300781 571.292969 161.214844 571.117188 161.90625 C 569.695312 167.511719 568.277344 173.121094 566.855469 178.726562 C 566.816406 178.890625 566.773438 179.046875 566.738281 179.210938 C 564.609375 173.878906 562.480469 168.550781 560.351562 163.214844 C 560.046875 162.457031 559.746094 161.695312 559.441406 160.933594 C 559.148438 160.195312 556.59375 160.738281 556.773438 161.179688 C 558.925781 166.570312 561.078125 171.964844 563.230469 177.355469 C 563.335938 177.621094 563.441406 177.882812 563.546875 178.152344 C 563.464844 178.085938 563.382812 178.015625 563.300781 177.949219 C 558.457031 173.933594 553.613281 169.914062 548.765625 165.894531 Z M 587.234375 197.8125 C 586.835938 197.480469 586.4375 197.152344 586.039062 196.824219 C 586.371094 196.691406 586.667969 196.484375 586.789062 196.179688 C 587.078125 195.433594 587.339844 194.675781 587.589844 193.914062 C 588.246094 193.964844 588.90625 194.011719 589.566406 194.050781 C 588.882812 195.363281 588.109375 196.625 587.234375 197.8125 Z M 581.96875 193.445312 C 583.035156 193.546875 584.101562 193.640625 585.171875 193.726562 C 584.976562 194.347656 584.765625 194.964844 584.550781 195.582031 C 583.6875 194.871094 582.828125 194.160156 581.96875 193.445312 Z M 566.402344 180.527344 C 566.171875 180.335938 565.941406 180.148438 565.710938 179.957031 C 566.078125 179.894531 566.417969 179.789062 566.621094 179.667969 C 566.546875 179.957031 566.476562 180.242188 566.402344 180.527344 Z M 556.453125 184.320312 C 556.480469 184.296875 556.589844 184.191406 556.628906 184.160156 C 556.75 184.058594 556.875 183.960938 557 183.871094 C 557.574219 183.46875 558.171875 183.179688 558.820312 182.90625 C 560.671875 182.121094 562.628906 181.589844 564.585938 181.125 C 566.5 182.714844 568.414062 184.304688 570.328125 185.890625 C 572.101562 187.363281 573.878906 188.835938 575.652344 190.3125 C 572.578125 189.921875 569.503906 189.453125 566.464844 188.839844 C 565.09375 188.5625 563.726562 188.25 562.371094 187.890625 C 562.234375 187.851562 562.09375 187.816406 561.953125 187.777344 C 561.898438 187.761719 561.714844 187.710938 561.65625 187.695312 C 561.601562 187.679688 561.410156 187.621094 561.367188 187.609375 C 561.203125 187.558594 561.039062 187.507812 560.875 187.457031 C 560.371094 187.300781 559.875 187.125 559.378906 186.941406 C 558.945312 186.78125 558.515625 186.601562 558.09375 186.410156 C 557.917969 186.328125 557.742188 186.246094 557.570312 186.15625 C 557.488281 186.117188 557.410156 186.070312 557.324219 186.03125 C 557.320312 186.03125 557.320312 186.03125 557.320312 186.027344 C 557.308594 186.019531 557.300781 186.011719 557.285156 186 C 557 185.828125 556.734375 185.640625 556.46875 185.4375 C 556.445312 185.421875 556.433594 185.410156 556.414062 185.398438 C 556.40625 185.390625 556.40625 185.386719 556.394531 185.375 C 556.320312 185.289062 556.246094 185.191406 556.160156 185.105469 C 556.140625 185.0625 556.109375 185.015625 556.113281 185.015625 C 556.113281 185.015625 556.109375 185.011719 556.109375 185.011719 C 556.105469 185.003906 556.105469 184.996094 556.101562 184.988281 C 556.097656 184.972656 556.097656 184.96875 556.09375 184.953125 C 556.097656 184.921875 556.097656 184.898438 556.097656 184.882812 C 556.113281 184.832031 556.140625 184.765625 556.15625 184.71875 C 556.1875 184.667969 556.234375 184.585938 556.25 184.5625 C 556.316406 184.480469 556.382812 184.398438 556.453125 184.320312 Z M 663.511719 284.164062 C 663.511719 284.160156 663.515625 284.160156 663.515625 284.15625 C 663.515625 284.175781 663.507812 284.195312 663.507812 284.214844 C 663.507812 284.199219 663.511719 284.183594 663.511719 284.164062 Z M 670.402344 195.113281 C 670.132812 198.679688 669.859375 202.246094 669.585938 205.808594 C 669.253906 210.15625 668.921875 214.507812 668.589844 218.855469 C 668.230469 223.621094 667.863281 228.386719 667.503906 233.148438 C 667.132812 237.980469 666.765625 242.8125 666.398438 247.640625 C 666.058594 252.125 665.714844 256.605469 665.375 261.089844 C 665.085938 264.878906 664.800781 268.671875 664.507812 272.460938 C 664.300781 275.1875 664.09375 277.914062 663.882812 280.644531 C 663.820312 281.5 663.753906 282.355469 663.6875 283.210938 C 663.671875 283.386719 663.644531 283.582031 663.617188 283.78125 C 663.574219 283.867188 663.550781 283.960938 663.535156 284.066406 C 663.535156 284.066406 663.53125 284.070312 663.53125 284.074219 C 663.535156 284.050781 663.53125 284.050781 663.519531 284.09375 C 663.496094 284.128906 663.472656 284.175781 663.457031 284.203125 C 663.433594 284.234375 663.40625 284.265625 663.382812 284.296875 C 663.285156 284.382812 663.199219 284.480469 663.097656 284.5625 C 662.851562 284.773438 662.589844 284.953125 662.320312 285.132812 C 662.296875 285.148438 662.273438 285.164062 662.246094 285.179688 C 662.167969 285.222656 662.089844 285.273438 662.007812 285.316406 C 661.800781 285.4375 661.589844 285.550781 661.378906 285.664062 C 659.242188 286.789062 656.808594 287.675781 654.601562 288.378906 C 646.878906 290.851562 638.8125 292.332031 630.765625 293.257812 C 620.492188 294.441406 610.105469 294.546875 599.808594 293.625 C 591.367188 292.867188 582.925781 291.460938 574.78125 289.097656 C 573.292969 288.664062 571.816406 288.199219 570.359375 287.679688 C 570.210938 287.625 570.070312 287.574219 569.921875 287.519531 C 569.894531 287.507812 569.875 287.5 569.855469 287.496094 C 569.785156 287.472656 569.71875 287.449219 569.652344 287.421875 C 569.347656 287.304688 569.039062 287.1875 568.734375 287.066406 C 568.183594 286.84375 567.632812 286.613281 567.089844 286.363281 C 566.261719 285.988281 565.453125 285.574219 564.679688 285.089844 C 564.609375 285.042969 564.488281 284.964844 564.433594 284.921875 C 564.296875 284.824219 564.160156 284.71875 564.035156 284.609375 C 563.882812 284.472656 563.746094 284.238281 563.945312 284.542969 C 563.894531 284.457031 563.8125 284.363281 563.746094 284.289062 C 563.746094 284.285156 563.746094 284.285156 563.746094 284.28125 C 563.734375 283.832031 563.453125 283.511719 563.074219 283.328125 C 563.054688 283.042969 563.03125 282.757812 563.011719 282.472656 C 562.828125 280.050781 562.644531 277.632812 562.457031 275.210938 C 562.1875 271.644531 561.917969 268.078125 561.640625 264.515625 C 561.308594 260.164062 560.976562 255.816406 560.648438 251.464844 C 560.285156 246.703125 559.921875 241.9375 559.558594 237.175781 C 559.191406 232.34375 558.820312 227.511719 558.457031 222.683594 C 558.113281 218.199219 557.769531 213.714844 557.429688 209.230469 C 557.140625 205.441406 556.855469 201.652344 556.566406 197.863281 C 556.359375 195.136719 556.152344 192.410156 555.941406 189.679688 C 555.890625 189.035156 555.839844 188.390625 555.792969 187.75 C 557.261719 188.71875 559 189.308594 560.660156 189.8125 C 563.535156 190.675781 566.472656 191.292969 569.429688 191.800781 C 572.628906 192.347656 575.851562 192.785156 579.078125 193.144531 C 579.730469 193.6875 580.378906 194.226562 581.03125 194.765625 C 582.203125 195.738281 583.375 196.710938 584.546875 197.683594 C 585.085938 198.132812 585.628906 198.707031 586.226562 199.078125 C 586.253906 199.09375 586.277344 199.121094 586.300781 199.140625 C 586.582031 199.371094 587.4375 199.304688 587.765625 199.316406 C 588.015625 199.324219 588.746094 199.4375 588.933594 199.214844 C 590.210938 197.660156 591.308594 195.980469 592.214844 194.214844 C 593.078125 194.261719 593.941406 194.3125 594.804688 194.355469 C 605.367188 194.894531 615.957031 194.976562 626.523438 194.632812 C 635.613281 194.332031 644.71875 193.742188 653.730469 192.492188 C 657.0625 192.027344 660.390625 191.46875 663.664062 190.703125 C 665.90625 190.179688 668.183594 189.582031 670.269531 188.589844 C 670.484375 188.488281 670.710938 188.375 670.9375 188.257812 C 670.753906 190.542969 670.578125 192.828125 670.402344 195.113281 Z M 670.402344 195.113281 " fill-opacity="1" fill-rule="nonzero"/></g><path fill="#0f1f3d" d="M 671.144531 184.523438 C 671.140625 184.519531 671.140625 184.515625 671.136719 184.511719 C 671.140625 184.539062 671.140625 184.5625 671.144531 184.585938 C 671.144531 184.570312 671.144531 184.546875 671.144531 184.523438 Z M 671.144531 184.523438 " fill-opacity="1" fill-rule="nonzero"/><path fill="#0f1f3d" d="M 613.167969 251.933594 C 609.867188 251.359375 606.558594 250.820312 603.257812 250.265625 C 599.730469 249.667969 596.203125 249.0625 592.675781 248.484375 C 590.058594 248.054688 586.789062 249.765625 586.019531 252.394531 C 585.734375 253.351562 585.652344 254.398438 585.488281 255.382812 C 584.753906 259.742188 584.019531 264.105469 583.285156 268.464844 C 583.027344 269.988281 582.769531 271.511719 582.515625 273.035156 C 582.445312 273.464844 582.359375 273.886719 582.367188 274.324219 C 582.402344 275.914062 583.347656 277.359375 584.820312 277.992188 C 585.800781 278.414062 587.054688 278.476562 588.09375 278.65625 C 590.105469 278.996094 592.125 279.332031 594.140625 279.671875 C 598.054688 280.332031 601.964844 280.988281 605.878906 281.648438 C 606.121094 281.691406 606.363281 281.730469 606.605469 281.769531 C 609.410156 282.171875 612.710938 280.089844 613.207031 277.242188 C 613.421875 276.003906 613.625 274.761719 613.832031 273.523438 C 614.570312 269.128906 615.3125 264.730469 616.050781 260.335938 C 616.253906 259.136719 616.464844 257.933594 616.65625 256.738281 C 617.042969 254.355469 615.511719 252.339844 613.167969 251.933594 Z M 614.277344 257.640625 C 614.230469 257.933594 614.179688 258.226562 614.128906 258.515625 C 613.492188 262.308594 612.851562 266.105469 612.214844 269.894531 C 611.742188 272.714844 611.320312 275.550781 610.792969 278.367188 C 610.675781 278.988281 610.40625 279.835938 609.84375 280.214844 C 609.5 280.449219 608.890625 280.375 608.460938 280.316406 C 605.660156 279.84375 602.859375 279.375 600.0625 278.902344 C 596.257812 278.261719 592.449219 277.625 588.644531 276.984375 C 588.34375 276.933594 588.039062 276.894531 587.742188 276.832031 C 586.4375 276.558594 585.390625 275.621094 584.964844 274.359375 C 584.582031 273.230469 584.925781 272.007812 585.117188 270.871094 C 585.804688 266.808594 586.484375 262.746094 587.171875 258.679688 C 587.46875 256.914062 587.765625 255.148438 588.0625 253.382812 C 588.242188 252.3125 588.3125 250.644531 589.292969 250 C 589.898438 249.601562 591.429688 250.054688 592.160156 250.175781 C 593.925781 250.472656 595.691406 250.769531 597.457031 251.066406 C 601.511719 251.75 605.558594 252.429688 609.609375 253.113281 C 610.730469 253.300781 611.929688 253.375 612.871094 254.078125 C 613.972656 254.898438 614.480469 256.296875 614.277344 257.640625 Z M 614.277344 257.640625 " fill-opacity="1" fill-rule="nonzero"/><path fill="#0f1f3d" d="M 603.753906 254.652344 C 603.046875 254.425781 602.28125 254.277344 601.539062 254.261719 C 600.878906 254.242188 600.605469 254.960938 600.75 255.511719 C 600.914062 256.152344 601.507812 256.691406 602.179688 256.710938 C 602.261719 256.714844 602.457031 256.738281 602.503906 256.742188 C 602.796875 256.785156 603.089844 256.835938 603.375 256.910156 C 603.601562 256.96875 603.820312 257.035156 604.039062 257.109375 C 604.058594 257.117188 604.078125 257.125 604.085938 257.125 C 604.105469 257.132812 604.128906 257.144531 604.164062 257.160156 C 604.292969 257.214844 604.421875 257.273438 604.546875 257.335938 C 604.660156 257.394531 604.773438 257.453125 604.882812 257.515625 C 604.9375 257.542969 604.988281 257.578125 605.042969 257.613281 C 605.257812 257.757812 605.457031 257.925781 605.644531 258.101562 C 605.691406 258.148438 605.832031 258.304688 605.859375 258.339844 C 605.894531 258.378906 606.019531 258.550781 606.058594 258.597656 C 606.089844 258.652344 606.210938 258.855469 606.234375 258.898438 C 606.261719 258.957031 606.386719 259.226562 606.394531 259.238281 C 606.695312 260.027344 606.703125 260.839844 606.703125 261.671875 C 606.703125 263.753906 606.703125 265.835938 606.703125 267.914062 C 606.703125 268.828125 606.703125 269.742188 606.703125 270.652344 C 606.703125 271.3125 607.253906 271.976562 607.890625 272.132812 C 608.515625 272.285156 609.019531 271.863281 609.019531 271.230469 C 609.019531 268.058594 609.054688 264.886719 609.019531 261.714844 C 608.984375 258.335938 606.953125 255.667969 603.753906 254.652344 Z M 605.027344 257.601562 C 604.984375 257.574219 604.945312 257.542969 605.027344 257.601562 Z M 605.027344 257.601562 " fill-opacity="1" fill-rule="nonzero"/><path fill="#0f1f3d" d="M 644.171875 251.90625 C 644.398438 251.851562 644.628906 251.796875 644.859375 251.742188 C 644.894531 251.734375 644.921875 251.71875 644.953125 251.707031 C 644.996094 251.703125 645.03125 251.699219 645.078125 251.6875 C 646.789062 251.234375 648 249.804688 648.324219 248.089844 C 648.484375 247.230469 648.367188 246.386719 648.164062 245.546875 C 647.847656 244.207031 647.527344 242.863281 647.207031 241.519531 C 646.175781 237.207031 645.148438 232.894531 644.117188 228.589844 C 643.859375 227.519531 643.625 226.445312 643.351562 225.382812 C 642.679688 222.753906 640.15625 220.628906 637.363281 221.265625 C 634.0625 222.023438 630.773438 222.839844 627.480469 223.625 C 624.039062 224.445312 620.597656 225.265625 617.15625 226.085938 C 614.355469 226.757812 613.003906 229.316406 613.625 232.074219 C 613.839844 233.03125 614.082031 233.980469 614.308594 234.933594 C 615.335938 239.246094 616.363281 243.554688 617.394531 247.867188 C 617.734375 249.285156 618.074219 250.707031 618.410156 252.128906 C 618.988281 254.535156 620.820312 256.699219 623.464844 256.726562 C 624.523438 256.738281 625.667969 256.320312 626.683594 256.074219 C 628.667969 255.601562 630.648438 255.128906 632.632812 254.65625 C 636.476562 253.742188 640.320312 252.824219 644.171875 251.90625 Z M 624.605469 253.886719 C 623.21875 254.21875 621.53125 254.5625 620.554688 253.195312 C 620.058594 252.5 619.964844 251.296875 619.769531 250.492188 C 618.8125 246.472656 617.855469 242.453125 616.894531 238.4375 C 616.488281 236.738281 616.085938 235.039062 615.675781 233.339844 C 615.375 232.082031 615.058594 230.992188 615.980469 229.824219 C 616.835938 228.734375 617.984375 228.585938 619.25 228.28125 C 620.980469 227.867188 622.710938 227.457031 624.441406 227.042969 C 628.4375 226.089844 632.433594 225.136719 636.425781 224.183594 C 637.46875 223.933594 638.726562 223.472656 639.789062 223.742188 C 640.714844 223.972656 641.382812 224.53125 641.617188 225.457031 C 641.707031 225.808594 641.785156 226.164062 641.871094 226.515625 C 642.777344 230.328125 643.6875 234.136719 644.59375 237.945312 C 645.046875 239.835938 645.5 241.726562 645.949219 243.613281 C 646.148438 244.453125 646.519531 245.402344 646.519531 246.28125 C 646.515625 247.789062 645.273438 248.914062 643.90625 249.277344 C 641.214844 249.921875 638.519531 250.5625 635.832031 251.207031 C 632.09375 252.097656 628.351562 252.992188 624.605469 253.886719 Z M 624.605469 253.886719 " fill-opacity="1" fill-rule="nonzero"/><path fill="#0f1f3d" d="M 635.988281 232.683594 C 636.109375 232.824219 636.226562 232.96875 636.339844 233.109375 C 636.519531 233.335938 636.683594 233.570312 636.84375 233.804688 C 636.882812 233.855469 636.902344 233.882812 636.910156 233.894531 C 636.917969 233.910156 636.933594 233.9375 636.96875 233.996094 C 637.0625 234.148438 637.15625 234.304688 637.25 234.460938 C 637.574219 235.027344 637.878906 235.613281 638.15625 236.207031 C 638.71875 237.398438 639.203125 238.621094 639.671875 239.847656 C 640.089844 240.9375 640.484375 242.046875 641.003906 243.09375 C 641.273438 243.636719 641.960938 244.15625 642.59375 243.933594 C 643.230469 243.710938 643.242188 242.929688 642.992188 242.417969 C 641.875 240.175781 641.191406 237.734375 640.117188 235.472656 C 638.925781 232.953125 637.253906 230.164062 634.484375 229.179688 C 633.007812 228.65625 631.417969 228.914062 630.054688 229.632812 C 629.46875 229.941406 629.367188 230.574219 629.65625 231.148438 C 629.890625 231.617188 630.660156 232.296875 631.246094 231.988281 C 631.546875 231.832031 631.851562 231.6875 632.171875 231.578125 C 632.320312 231.527344 632.464844 231.484375 632.617188 231.441406 C 632.816406 231.390625 632.753906 231.402344 632.875 231.386719 C 633.148438 231.347656 633.417969 231.34375 633.695312 231.355469 C 633.707031 231.355469 633.714844 231.355469 633.726562 231.355469 C 633.78125 231.363281 633.832031 231.371094 633.886719 231.382812 C 634.027344 231.414062 634.167969 231.449219 634.308594 231.488281 C 634.339844 231.496094 634.359375 231.503906 634.378906 231.507812 C 634.386719 231.511719 634.402344 231.519531 634.421875 231.527344 C 634.539062 231.578125 634.65625 231.632812 634.769531 231.695312 C 634.851562 231.738281 634.9375 231.789062 635.015625 231.839844 C 635.03125 231.851562 635.238281 231.996094 635.277344 232.03125 C 635.386719 232.117188 635.492188 232.203125 635.59375 232.296875 C 635.621094 232.320312 635.761719 232.457031 635.816406 232.507812 C 635.875 232.5625 635.960938 232.65625 635.988281 232.683594 Z M 635.988281 232.683594 " fill-opacity="1" fill-rule="nonzero"/><g transform="matrix(1, 0, 0, 1, 125, 80)"><g clip-path="url(#f6641199eb)"><g fill="#0f1f3d" fill-opacity="1"><g transform="translate(0.954929, 214.02081)"><g><path d="M 102.664062 -72.550781 C 113.445312 -78.882812 119.261719 -88.464844 119.261719 -101.640625 L 119.261719 -102.664062 C 119.261719 -125.25 105.0625 -136.886719 78.195312 -136.886719 L 10.265625 -136.886719 L 10.265625 0 L 80.59375 0 C 106.773438 0 123.882812 -13.859375 123.882812 -40.382812 L 123.882812 -41.410156 C 123.882812 -56.292969 116.355469 -66.734375 102.664062 -72.550781 Z M 73.0625 -106.085938 C 79.394531 -106.085938 82.816406 -102.152344 82.816406 -95.820312 L 82.816406 -95.136719 C 82.816406 -88.632812 79.394531 -84.871094 73.0625 -84.871094 L 47.910156 -84.871094 L 47.910156 -106.085938 Z M 86.410156 -41.921875 C 86.410156 -34.394531 82.472656 -30.800781 74.261719 -30.800781 L 47.910156 -30.800781 L 47.910156 -54.070312 L 74.261719 -54.070312 C 82.472656 -54.070312 86.410156 -50.476562 86.410156 -42.949219 Z M 86.410156 -41.921875 "/></g></g></g><g fill="#0f1f3d" fill-opacity="1"><g transform="translate(130.194972, 214.02081)"><g><path d="M 90.6875 0 L 129.871094 0 L 85.726562 -136.886719 L 43.460938 -136.886719 L 1.367188 0 L 40.554688 0 L 46.027344 -20.875 L 84.871094 -20.875 Z M 54.242188 -51.503906 L 61.429688 -78.710938 L 64.507812 -94.453125 L 65.191406 -94.453125 L 68.613281 -78.882812 L 76.316406 -51.503906 Z M 54.242188 -51.503906 "/></g></g></g><g fill="#0f1f3d" fill-opacity="1"><g transform="translate(261.659452, 214.02081)"><g><path d="M 83.671875 0 L 123.882812 0 L 101.808594 -56.808594 C 114.984375 -63.996094 122.171875 -76.484375 122.171875 -93.425781 L 122.171875 -94.453125 C 122.171875 -122.683594 106.257812 -136.886719 73.746094 -136.886719 L 10.265625 -136.886719 L 10.265625 0 L 48.421875 0 L 48.421875 -49.792969 L 67.589844 -49.792969 Z M 48.421875 -106.085938 L 72.722656 -106.085938 C 81.277344 -106.085938 85.898438 -101.980469 85.898438 -93.769531 L 85.898438 -92.914062 C 85.898438 -84.699219 81.277344 -80.59375 72.722656 -80.59375 L 48.421875 -80.59375 Z M 48.421875 -106.085938 "/></g></g></g></g></g><g fill="#5bc983" fill-opacity="1"><g transform="translate(705.721436, 293.709323)"><g><path d="M 83.617188 0 L 123.804688 0 L 101.746094 -56.773438 C 114.910156 -63.953125 122.09375 -76.4375 122.09375 -93.367188 L 122.09375 -94.390625 C 122.09375 -122.605469 106.191406 -136.800781 73.699219 -136.800781 L 10.261719 -136.800781 L 10.261719 0 L 48.394531 0 L 48.394531 -49.761719 L 67.546875 -49.761719 Z M 48.394531 -106.019531 L 72.675781 -106.019531 C 81.226562 -106.019531 85.84375 -101.914062 85.84375 -93.707031 L 85.84375 -92.851562 C 85.84375 -84.644531 81.226562 -80.539062 72.675781 -80.539062 L 48.394531 -80.539062 Z M 48.394531 -106.019531 "/></g></g></g><g fill="#5bc983" fill-opacity="1"><g transform="translate(834.826381, 293.709323)"><g><path d="M 51.300781 -32.488281 L 51.300781 -52.667969 L 110.808594 -52.667969 L 110.808594 -85.15625 L 51.300781 -85.15625 L 51.300781 -104.308594 L 112.519531 -104.308594 L 112.519531 -136.800781 L 10.261719 -136.800781 L 10.261719 0 L 114.226562 0 L 114.226562 -32.488281 Z M 51.300781 -32.488281 "/></g></g></g><g fill="#5bc983" fill-opacity="1"><g transform="translate(955.210333, 293.709323)"><g><path d="M 90.628906 0 L 129.789062 0 L 85.671875 -136.800781 L 43.433594 -136.800781 L 1.367188 0 L 40.527344 0 L 46 -20.863281 L 84.816406 -20.863281 Z M 54.207031 -51.472656 L 61.390625 -78.660156 L 64.46875 -94.390625 L 65.152344 -94.390625 L 68.570312 -78.832031 L 76.265625 -51.472656 Z M 54.207031 -51.472656 "/></g></g></g><g fill="#5bc983" fill-opacity="1"><g transform="translate(1086.367285, 293.709323)"><g><path d="M 66.007812 -136.800781 L 10.261719 -136.800781 L 10.261719 0 L 66.007812 0 C 104.652344 0 126.027344 -23.941406 126.027344 -68.570312 C 126.027344 -113.03125 104.652344 -136.800781 66.007812 -136.800781 Z M 63.097656 -33.859375 L 50.617188 -33.859375 L 50.617188 -102.941406 L 63.097656 -102.941406 C 78.488281 -102.941406 85.5 -93.023438 85.5 -68.570312 C 85.5 -43.433594 78.488281 -33.859375 63.097656 -33.859375 Z M 63.097656 -33.859375 "/></g></g></g><g fill="#5bc983" fill-opacity="1"><g transform="translate(1219.23423, 293.709323)"><g><path d="M 128.25 -136.800781 L 87.210938 -136.800781 L 70.964844 -96.957031 L 65.320312 -80.539062 L 64.636719 -80.539062 L 58.996094 -96.785156 L 42.578125 -136.800781 L 1.367188 -136.800781 L 44.632812 -45.828125 L 44.632812 0 L 84.988281 0 L 84.988281 -45.828125 Z M 128.25 -136.800781 "/></g></g></g><g fill="#0f1f3d" fill-opacity="1"><g transform="translate(593.665851, 357.604367)"><g><path d="M 3 0 L 3 -22.84375 L 6.75 -22.84375 L 6.75 -3.1875 L 16.453125 -3.1875 L 16.453125 0 Z M 3 0 "/></g></g></g><g fill="#0f1f3d" fill-opacity="1"><g transform="translate(624.39605, 357.604367)"><g><path d="M 17.15625 0 L 14.921875 -6.34375 L 6.1875 -6.34375 L 3.953125 0 L 0 0 L 8.5 -22.9375 L 12.65625 -22.9375 L 21.140625 0 Z M 13.953125 -9.5625 L 11.78125 -15.8125 C 11.695312 -16.082031 11.578125 -16.460938 11.421875 -16.953125 C 11.265625 -17.453125 11.109375 -17.957031 10.953125 -18.46875 C 10.796875 -18.988281 10.664062 -19.425781 10.5625 -19.78125 C 10.457031 -19.351562 10.328125 -18.875 10.171875 -18.34375 C 10.023438 -17.820312 9.878906 -17.332031 9.734375 -16.875 C 9.597656 -16.414062 9.492188 -16.0625 9.421875 -15.8125 L 7.234375 -9.5625 Z M 13.953125 -9.5625 "/></g></g></g><g fill="#0f1f3d" fill-opacity="1"><g transform="translate(658.890954, 357.604367)"><g><path d="M 16.1875 -6.21875 C 16.1875 -4.863281 15.851562 -3.695312 15.1875 -2.71875 C 14.53125 -1.738281 13.582031 -0.988281 12.34375 -0.46875 C 11.113281 0.0507812 9.644531 0.3125 7.9375 0.3125 C 7.101562 0.3125 6.304688 0.265625 5.546875 0.171875 C 4.785156 0.078125 4.066406 -0.0546875 3.390625 -0.234375 C 2.722656 -0.421875 2.113281 -0.644531 1.5625 -0.90625 L 1.5625 -4.4375 C 2.488281 -4.03125 3.523438 -3.660156 4.671875 -3.328125 C 5.816406 -3.003906 6.984375 -2.84375 8.171875 -2.84375 C 9.140625 -2.84375 9.941406 -2.96875 10.578125 -3.21875 C 11.222656 -3.476562 11.703125 -3.84375 12.015625 -4.3125 C 12.328125 -4.789062 12.484375 -5.347656 12.484375 -5.984375 C 12.484375 -6.660156 12.300781 -7.234375 11.9375 -7.703125 C 11.570312 -8.171875 11.019531 -8.597656 10.28125 -8.984375 C 9.550781 -9.378906 8.632812 -9.800781 7.53125 -10.25 C 6.78125 -10.550781 6.0625 -10.894531 5.375 -11.28125 C 4.695312 -11.664062 4.09375 -12.117188 3.5625 -12.640625 C 3.03125 -13.160156 2.609375 -13.773438 2.296875 -14.484375 C 1.992188 -15.203125 1.84375 -16.046875 1.84375 -17.015625 C 1.84375 -18.304688 2.148438 -19.410156 2.765625 -20.328125 C 3.390625 -21.242188 4.265625 -21.945312 5.390625 -22.4375 C 6.523438 -22.925781 7.847656 -23.171875 9.359375 -23.171875 C 10.554688 -23.171875 11.679688 -23.046875 12.734375 -22.796875 C 13.796875 -22.546875 14.835938 -22.191406 15.859375 -21.734375 L 14.671875 -18.71875 C 13.734375 -19.101562 12.820312 -19.410156 11.9375 -19.640625 C 11.0625 -19.867188 10.164062 -19.984375 9.25 -19.984375 C 8.457031 -19.984375 7.785156 -19.863281 7.234375 -19.625 C 6.679688 -19.382812 6.257812 -19.046875 5.96875 -18.609375 C 5.6875 -18.179688 5.546875 -17.671875 5.546875 -17.078125 C 5.546875 -16.410156 5.707031 -15.847656 6.03125 -15.390625 C 6.363281 -14.941406 6.875 -14.53125 7.5625 -14.15625 C 8.257812 -13.78125 9.15625 -13.363281 10.25 -12.90625 C 11.507812 -12.382812 12.578125 -11.835938 13.453125 -11.265625 C 14.335938 -10.691406 15.015625 -10.003906 15.484375 -9.203125 C 15.953125 -8.410156 16.1875 -7.414062 16.1875 -6.21875 Z M 16.1875 -6.21875 "/></g></g></g><g fill="#0f1f3d" fill-opacity="1"><g transform="translate(689.82423, 357.604367)"><g/></g></g><g fill="#0f1f3d" fill-opacity="1"><g transform="translate(711.478521, 357.604367)"><g><path d="M 19.9375 -22.84375 L 11.953125 0 L 7.984375 0 L 0 -22.84375 L 3.84375 -22.84375 L 8.65625 -8.53125 C 8.800781 -8.113281 8.957031 -7.609375 9.125 -7.015625 C 9.300781 -6.421875 9.460938 -5.820312 9.609375 -5.21875 C 9.765625 -4.613281 9.882812 -4.078125 9.96875 -3.609375 C 10.050781 -4.078125 10.164062 -4.613281 10.3125 -5.21875 C 10.46875 -5.820312 10.628906 -6.421875 10.796875 -7.015625 C 10.960938 -7.609375 11.117188 -8.117188 11.265625 -8.546875 L 16.09375 -22.84375 Z M 19.9375 -22.84375 "/></g></g></g><g fill="#0f1f3d" fill-opacity="1"><g transform="translate(744.754974, 357.604367)"><g><path d="M 15.9375 0 L 3 0 L 3 -22.84375 L 15.9375 -22.84375 L 15.9375 -19.6875 L 6.75 -19.6875 L 6.75 -13.484375 L 15.359375 -13.484375 L 15.359375 -10.34375 L 6.75 -10.34375 L 6.75 -3.171875 L 15.9375 -3.171875 Z M 15.9375 0 "/></g></g></g><g fill="#0f1f3d" fill-opacity="1"><g transform="translate(775.953809, 357.604367)"><g><path d="M 12.21875 -12.40625 L 20.75 -12.40625 L 20.75 -0.9375 C 19.550781 -0.539062 18.3125 -0.234375 17.03125 -0.015625 C 15.75 0.203125 14.3125 0.3125 12.71875 0.3125 C 10.394531 0.3125 8.425781 -0.144531 6.8125 -1.0625 C 5.207031 -1.988281 3.988281 -3.328125 3.15625 -5.078125 C 2.320312 -6.835938 1.90625 -8.957031 1.90625 -11.4375 C 1.90625 -13.820312 2.367188 -15.890625 3.296875 -17.640625 C 4.222656 -19.398438 5.570312 -20.757812 7.34375 -21.71875 C 9.113281 -22.6875 11.257812 -23.171875 13.78125 -23.171875 C 15.019531 -23.171875 16.21875 -23.046875 17.375 -22.796875 C 18.539062 -22.554688 19.609375 -22.222656 20.578125 -21.796875 L 19.265625 -18.703125 C 18.492188 -19.066406 17.628906 -19.375 16.671875 -19.625 C 15.710938 -19.875 14.71875 -20 13.6875 -20 C 12.050781 -20 10.640625 -19.644531 9.453125 -18.9375 C 8.273438 -18.226562 7.367188 -17.226562 6.734375 -15.9375 C 6.097656 -14.65625 5.78125 -13.140625 5.78125 -11.390625 C 5.78125 -9.691406 6.035156 -8.203125 6.546875 -6.921875 C 7.054688 -5.640625 7.851562 -4.640625 8.9375 -3.921875 C 10.03125 -3.210938 11.441406 -2.859375 13.171875 -2.859375 C 14.035156 -2.859375 14.769531 -2.90625 15.375 -3 C 15.976562 -3.09375 16.535156 -3.195312 17.046875 -3.3125 L 17.046875 -9.203125 L 12.21875 -9.203125 Z M 12.21875 -12.40625 "/></g></g></g><g fill="#0f1f3d" fill-opacity="1"><g transform="translate(812.510698, 357.604367)"><g><path d="M 17.15625 0 L 14.921875 -6.34375 L 6.1875 -6.34375 L 3.953125 0 L 0 0 L 8.5 -22.9375 L 12.65625 -22.9375 L 21.140625 0 Z M 13.953125 -9.5625 L 11.78125 -15.8125 C 11.695312 -16.082031 11.578125 -16.460938 11.421875 -16.953125 C 11.265625 -17.453125 11.109375 -17.957031 10.953125 -18.46875 C 10.796875 -18.988281 10.664062 -19.425781 10.5625 -19.78125 C 10.457031 -19.351562 10.328125 -18.875 10.171875 -18.34375 C 10.023438 -17.820312 9.878906 -17.332031 9.734375 -16.875 C 9.597656 -16.414062 9.492188 -16.0625 9.421875 -15.8125 L 7.234375 -9.5625 Z M 13.953125 -9.5625 "/></g></g></g><g fill="#0f1f3d" fill-opacity="1"><g transform="translate(847.005614, 357.604367)"><g><path d="M 16.1875 -6.21875 C 16.1875 -4.863281 15.851562 -3.695312 15.1875 -2.71875 C 14.53125 -1.738281 13.582031 -0.988281 12.34375 -0.46875 C 11.113281 0.0507812 9.644531 0.3125 7.9375 0.3125 C 7.101562 0.3125 6.304688 0.265625 5.546875 0.171875 C 4.785156 0.078125 4.066406 -0.0546875 3.390625 -0.234375 C 2.722656 -0.421875 2.113281 -0.644531 1.5625 -0.90625 L 1.5625 -4.4375 C 2.488281 -4.03125 3.523438 -3.660156 4.671875 -3.328125 C 5.816406 -3.003906 6.984375 -2.84375 8.171875 -2.84375 C 9.140625 -2.84375 9.941406 -2.96875 10.578125 -3.21875 C 11.222656 -3.476562 11.703125 -3.84375 12.015625 -4.3125 C 12.328125 -4.789062 12.484375 -5.347656 12.484375 -5.984375 C 12.484375 -6.660156 12.300781 -7.234375 11.9375 -7.703125 C 11.570312 -8.171875 11.019531 -8.597656 10.28125 -8.984375 C 9.550781 -9.378906 8.632812 -9.800781 7.53125 -10.25 C 6.78125 -10.550781 6.0625 -10.894531 5.375 -11.28125 C 4.695312 -11.664062 4.09375 -12.117188 3.5625 -12.640625 C 3.03125 -13.160156 2.609375 -13.773438 2.296875 -14.484375 C 1.992188 -15.203125 1.84375 -16.046875 1.84375 -17.015625 C 1.84375 -18.304688 2.148438 -19.410156 2.765625 -20.328125 C 3.390625 -21.242188 4.265625 -21.945312 5.390625 -22.4375 C 6.523438 -22.925781 7.847656 -23.171875 9.359375 -23.171875 C 10.554688 -23.171875 11.679688 -23.046875 12.734375 -22.796875 C 13.796875 -22.546875 14.835938 -22.191406 15.859375 -21.734375 L 14.671875 -18.71875 C 13.734375 -19.101562 12.820312 -19.410156 11.9375 -19.640625 C 11.0625 -19.867188 10.164062 -19.984375 9.25 -19.984375 C 8.457031 -19.984375 7.785156 -19.863281 7.234375 -19.625 C 6.679688 -19.382812 6.257812 -19.046875 5.96875 -18.609375 C 5.6875 -18.179688 5.546875 -17.671875 5.546875 -17.078125 C 5.546875 -16.410156 5.707031 -15.847656 6.03125 -15.390625 C 6.363281 -14.941406 6.875 -14.53125 7.5625 -14.15625 C 8.257812 -13.78125 9.15625 -13.363281 10.25 -12.90625 C 11.507812 -12.382812 12.578125 -11.835938 13.453125 -11.265625 C 14.335938 -10.691406 15.015625 -10.003906 15.484375 -9.203125 C 15.953125 -8.410156 16.1875 -7.414062 16.1875 -6.21875 Z M 16.1875 -6.21875 "/></g></g></g><path stroke-linecap="butt" transform="matrix(0.75, 0, 0, 0.75, 125.954929, 346.560676)" fill="none" stroke-linejoin="miter" d="M -0.00240474 2.002432 L 556.58618 2.002432 " stroke="#0f1f3d" stroke-width="4" stroke-opacity="1" stroke-miterlimit="4"/><path stroke-linecap="butt" transform="matrix(0.749995, 0.00262725, -0.00262725, 0.749995, 913.705492, 346.560705)" fill="none" stroke-linejoin="miter" d="M -0.00134988 2.00241 L 570.934476 2.002419 " stroke="#0f1f3d" stroke-width="4" stroke-opacity="1" stroke-miterlimit="4"/></svg>